<?xml version="1.0" encoding="UTF-8"?>
<svg version="1.1" xmlns="http://www.w3.org/2000/svg" width="500" height="500">
<path d="M0 0 C8.41759192 0.57086012 8.41759192 0.57086012 12.48046875 3.08984375 C14.31588194 6.08768529 14.8495033 7.94949654 15.47265625 11.34375 C15.6413623 12.24424072 15.81006836 13.14473145 15.98388672 14.07250977 C16.10650879 14.75885498 16.22913086 15.4452002 16.35546875 16.15234375 C17.01501556 16.1604306 17.67456238 16.16851746 18.35409546 16.17684937 C25.19948082 16.26269947 32.04457004 16.36219378 38.88964844 16.46972656 C41.44656412 16.50808355 44.003535 16.54292437 46.56054688 16.57421875 C50.22936784 16.61972351 53.89780648 16.67774185 57.56640625 16.73828125 C59.28988785 16.75560806 59.28988785 16.75560806 61.04818726 16.77328491 C62.10913605 16.7931546 63.17008484 16.81302429 64.26318359 16.83349609 C65.20028168 16.84681976 66.13737976 16.86014343 67.10287476 16.87387085 C69.35546875 17.15234375 69.35546875 17.15234375 71.35546875 19.15234375 C71.90050536 26.35256424 70.55165716 32.49711756 68.60546875 39.40234375 C68.22648437 40.85253906 68.22648437 40.85253906 67.83984375 42.33203125 C66.4525496 47.36790902 65.24583812 51.44577135 61.35546875 55.15234375 C57.62126278 56.39707907 54.08181637 56.3844416 50.1875 56.46875 C49.39268723 56.4895311 48.59787445 56.51031219 47.77897644 56.53172302 C45.24206112 56.59706462 42.70504302 56.65603183 40.16796875 56.71484375 C38.44725503 56.75804361 36.72655167 56.80165838 35.00585938 56.84570312 C30.78916762 56.95273023 26.57237255 57.05404099 22.35546875 57.15234375 C22.02546875 57.81234375 21.69546875 58.47234375 21.35546875 59.15234375 C21.99484375 59.42046875 22.63421875 59.68859375 23.29296875 59.96484375 C25.35546875 61.15234375 25.35546875 61.15234375 26.35546875 64.15234375 C30.31546875 64.15234375 34.27546875 64.15234375 38.35546875 64.15234375 C39.01546875 62.83234375 39.67546875 61.51234375 40.35546875 60.15234375 C42.87395213 58.26348122 44.18366743 58.14518536 47.35546875 58.27734375 C50.86679033 59.30147921 52.20606368 60.20686273 54.35546875 63.15234375 C55.48384155 66.68791186 55.67071811 68.39924806 54.23046875 71.83984375 C52.17694351 74.37252488 50.23981556 75.67119268 47.35546875 77.15234375 C47.99484375 77.95671875 48.63421875 78.76109375 49.29296875 79.58984375 C52.29620942 84.14833406 52.90941207 88.95113448 51.984375 94.296875 C50.31381488 99.72360136 47.05459065 103.06587505 42.35546875 106.15234375 C36.3954114 108.13902953 29.68766156 108.14105797 23.91796875 105.52734375 C19.29703165 102.86651726 17.02337451 99.15606102 15.35546875 94.15234375 C14.53735236 87.35258948 15.94066774 83.02153299 19.35546875 77.15234375 C18.26234375 76.76046875 17.16921875 76.36859375 16.04296875 75.96484375 C13.37054055 74.80480392 12.32159143 74.1131731 10.35546875 71.83984375 C9.07978386 68.41144062 9.24667222 66.62657288 10.35546875 63.15234375 C11.66676797 61.79733456 13.00238562 60.46563032 14.35546875 59.15234375 C15.36031758 56.82109446 16.36069122 54.48790838 17.35546875 52.15234375 C21.16188116 49.61473548 24.3240723 49.802569 28.7421875 49.73828125 C29.96770073 49.70923203 29.96770073 49.70923203 31.2179718 49.67959595 C33.82619809 49.61984023 36.43446861 49.57343117 39.04296875 49.52734375 C40.81186815 49.48916025 42.58074903 49.45010829 44.34960938 49.41015625 C48.68474534 49.31414207 53.01996835 49.2300964 57.35546875 49.15234375 C59.59714628 43.75648302 61.71938144 38.48483584 63.04296875 32.77734375 C63.27371094 31.80023438 63.50445312 30.823125 63.7421875 29.81640625 C63.94457031 28.93726563 64.14695312 28.058125 64.35546875 27.15234375 C64.68546875 25.83234375 65.01546875 24.51234375 65.35546875 23.15234375 C49.51546875 22.82234375 33.67546875 22.49234375 17.35546875 22.15234375 C18.01546875 26.11234375 18.67546875 30.07234375 19.35546875 34.15234375 C19.42687708 37.15149377 19.45541324 40.15400903 19.35546875 43.15234375 C17.37546875 43.64734375 17.37546875 43.64734375 15.35546875 44.15234375 C13.02740008 40.66024074 12.7287798 38.28450407 12.1015625 34.1484375 C11.99578384 33.4693483 11.89000519 32.79025909 11.78102112 32.09059143 C11.44463222 29.92469009 11.11821692 27.75744371 10.79296875 25.58984375 C10.46273239 23.41892994 10.13036138 21.24838951 9.79420471 19.0783844 C9.49027162 17.11212698 9.19309565 15.14482865 8.89624023 13.17749023 C8.51894421 10.24359189 8.51894421 10.24359189 7.35546875 8.15234375 C4.77595001 7.46140479 4.77595001 7.46140479 1.79296875 7.02734375 C0.78105469 6.85976562 -0.23085937 6.6921875 -1.2734375 6.51953125 C-2.05589844 6.39835938 -2.83835938 6.2771875 -3.64453125 6.15234375 C-4.26953125 4.27734375 -4.26953125 4.27734375 -4.64453125 2.15234375 C-2.64453125 0.15234375 -2.64453125 0.15234375 0 0 Z M15.54296875 64.33984375 C14.10256547 66.10288484 14.10256547 66.10288484 14.66796875 68.33984375 C14.89484375 68.93796875 15.12171875 69.53609375 15.35546875 70.15234375 C17.75266307 70.83192978 17.75266307 70.83192978 20.35546875 71.15234375 C21.01546875 70.49234375 21.67546875 69.83234375 22.35546875 69.15234375 C22.03505478 66.54953807 22.03505478 66.54953807 21.35546875 64.15234375 C18.3479796 62.99372069 18.3479796 62.99372069 15.54296875 64.33984375 Z M42.35546875 65.15234375 C42.68546875 66.80234375 43.01546875 68.45234375 43.35546875 70.15234375 C45.75266307 70.83192978 45.75266307 70.83192978 48.35546875 71.15234375 C49.01546875 70.49234375 49.67546875 69.83234375 50.35546875 69.15234375 C50.03505478 66.54953807 50.03505478 66.54953807 49.35546875 64.15234375 C45.86965019 62.95033735 45.67554531 62.93895938 42.35546875 65.15234375 Z M25.23046875 71.65234375 C24.94171875 72.47734375 24.65296875 73.30234375 24.35546875 74.15234375 C25.34546875 73.80171875 26.33546875 73.45109375 27.35546875 73.08984375 C31.61912788 71.84300683 35.01707563 72.39122215 39.35546875 73.15234375 C38.69546875 71.83234375 38.03546875 70.51234375 37.35546875 69.15234375 C30.53134325 68.23120156 30.53134325 68.23120156 25.23046875 71.65234375 Z M29.54296875 84.71484375 C27.85660291 88.17633153 28.47041204 90.47595434 29.35546875 94.15234375 C31.18333147 96.36091613 31.18333147 96.36091613 33.79296875 96.58984375 C36.53439973 96.3977304 36.53439973 96.3977304 38.23046875 94.02734375 C39.59795313 90.53266144 39.46329408 88.71321087 38.35546875 85.15234375 C35.02057201 82.92907925 32.82939675 81.88171616 29.54296875 84.71484375 Z " fill="#EEF9F7" transform="translate(216.64453125,195.84765625)"/>
<path d="M0 0 C4.38310237 4.32403091 6.14797512 8.04812429 6.3125 14.1875 C6.2476332 19.6363114 5.30535164 23.62375562 2 28 C-2.13214931 31.84385982 -5.42776234 32.44310919 -10.8515625 32.43359375 C-13 32 -13 32 -17 29 C-17.33 34.28 -17.66 39.56 -18 45 C-22.29 45 -26.58 45 -31 45 C-31.16941367 40.0747104 -31.32975321 35.14923337 -31.48217773 30.22338867 C-31.53510459 28.5524121 -31.59038597 26.8815082 -31.64819336 25.21069336 C-31.96389193 16.03896371 -32.11207606 7.1354989 -31 -2 C-27.04 -2 -23.08 -2 -19 -2 C-19 -1.34 -19 -0.68 -19 0 C-18.34 -0.66 -17.68 -1.32 -17 -2 C-10.99762627 -4.22310138 -5.2827249 -3.44525537 0 0 Z M-16.75 9.125 C-18.58248669 11.87373003 -18.39615205 13.76475829 -18 17 C-16.96057155 19.44245747 -16.96057155 19.44245747 -15 21 C-12.5 21.66666667 -12.5 21.66666667 -10 21 C-7.95173938 19.52040427 -7.95173938 19.52040427 -7 17 C-6.99331283 13.37942732 -6.99331283 13.37942732 -8 10 C-11.19240645 7.87172903 -13.28774614 6.89926538 -16.75 9.125 Z " fill="#E4F5F3" transform="translate(342,271)"/>
<path d="M0 0 C1 3 1 3 0.00390625 5.26171875 C-0.70958984 6.46248047 -0.70958984 6.46248047 -1.4375 7.6875 C-1.91058594 8.49574219 -2.38367188 9.30398438 -2.87109375 10.13671875 C-3.42990234 11.05904297 -3.42990234 11.05904297 -4 12 C-5.175625 11.525625 -6.35125 11.05125 -7.5625 10.5625 C-11.40103259 9.11193153 -14.92740191 8.42422897 -19 8 C-19 8.99 -19 9.98 -19 11 C-18.28714844 11.17015625 -17.57429688 11.3403125 -16.83984375 11.515625 C-3.93506226 14.78089945 -3.93506226 14.78089945 0.9375 20.125 C2.87706555 25.37323619 2.91229641 30.74326676 0.8125 35.9375 C-2.87275356 40.1310644 -6.99286479 41.75020602 -12.4453125 42.203125 C-21.05194075 42.35367826 -28.02405396 41.23195953 -35 36 C-33.35 32.04 -31.7 28.08 -30 24 C-28.88625 24.61875 -27.7725 25.2375 -26.625 25.875 C-21.91585109 28.25489246 -17.18210006 29.19295163 -12 30 C-12 29.01 -12 28.02 -12 27 C-12.70125 26.82984375 -13.4025 26.6596875 -14.125 26.484375 C-26.6043956 23.2967033 -26.6043956 23.2967033 -31 20 C-33.38275779 15.9016566 -33.32803012 11.84713332 -32.66796875 7.25 C-31.48540665 3.26663291 -29.16696505 0.61683497 -26 -2 C-17.69149812 -6.24656763 -7.94407545 -4.24156885 0 0 Z " fill="#E7F6F4" transform="translate(190,261)"/>
<path d="M0 0 C8.41759192 0.57086012 8.41759192 0.57086012 12.48046875 3.08984375 C14.31588194 6.08768529 14.8495033 7.94949654 15.47265625 11.34375 C15.6413623 12.24424072 15.81006836 13.14473145 15.98388672 14.07250977 C16.10650879 14.75885498 16.22913086 15.4452002 16.35546875 16.15234375 C17.01501556 16.1604306 17.67456238 16.16851746 18.35409546 16.17684937 C25.19948082 16.26269947 32.04457004 16.36219378 38.88964844 16.46972656 C41.44656412 16.50808355 44.003535 16.54292437 46.56054688 16.57421875 C50.22936784 16.61972351 53.89780648 16.67774185 57.56640625 16.73828125 C59.28988785 16.75560806 59.28988785 16.75560806 61.04818726 16.77328491 C62.10913605 16.7931546 63.17008484 16.81302429 64.26318359 16.83349609 C65.20028168 16.84681976 66.13737976 16.86014343 67.10287476 16.87387085 C69.35546875 17.15234375 69.35546875 17.15234375 71.35546875 19.15234375 C71.90050536 26.35256424 70.55165716 32.49711756 68.60546875 39.40234375 C68.22648437 40.85253906 68.22648437 40.85253906 67.83984375 42.33203125 C66.4525496 47.36790902 65.24583812 51.44577135 61.35546875 55.15234375 C57.62126278 56.39707907 54.08181637 56.3844416 50.1875 56.46875 C49.39268723 56.4895311 48.59787445 56.51031219 47.77897644 56.53172302 C45.24206112 56.59706462 42.70504302 56.65603183 40.16796875 56.71484375 C38.44725503 56.75804361 36.72655167 56.80165838 35.00585938 56.84570312 C30.78916762 56.95273023 26.57237255 57.05404099 22.35546875 57.15234375 C22.02546875 57.81234375 21.69546875 58.47234375 21.35546875 59.15234375 C22.67546875 59.81234375 23.99546875 60.47234375 25.35546875 61.15234375 C23.87046875 61.64734375 23.87046875 61.64734375 22.35546875 62.15234375 C22.68546875 63.14234375 23.01546875 64.13234375 23.35546875 65.15234375 C20.71546875 64.82234375 18.07546875 64.49234375 15.35546875 64.15234375 C15.35546875 65.80234375 15.35546875 67.45234375 15.35546875 69.15234375 C17.00546875 69.48234375 18.65546875 69.81234375 20.35546875 70.15234375 C21.34546875 68.83234375 22.33546875 67.51234375 23.35546875 66.15234375 C23.12859375 67.08046875 22.90171875 68.00859375 22.66796875 68.96484375 C21.99226892 72.12061223 21.99226892 72.12061223 23.79296875 74.02734375 C24.56640625 74.58421875 24.56640625 74.58421875 25.35546875 75.15234375 C21.93816074 76.20382314 18.91981578 76.51605263 15.35546875 76.15234375 C11.60761832 74.07020462 10.5606458 72.85763985 9.35546875 68.71484375 C9.35546875 64.78126002 9.93678631 63.198092 12.35546875 60.15234375 C13.34546875 59.65734375 13.34546875 59.65734375 14.35546875 59.15234375 C14.82984375 58.01796875 15.30421875 56.88359375 15.79296875 55.71484375 C17.35546875 52.15234375 17.35546875 52.15234375 20.35546875 50.15234375 C23.17984319 49.91136688 25.91424049 49.77943055 28.7421875 49.73828125 C29.96770073 49.70923203 29.96770073 49.70923203 31.2179718 49.67959595 C33.82619809 49.61984023 36.43446861 49.57343117 39.04296875 49.52734375 C40.81186815 49.48916025 42.58074903 49.45010829 44.34960938 49.41015625 C48.68474534 49.31414207 53.01996835 49.2300964 57.35546875 49.15234375 C59.59714628 43.75648302 61.71938144 38.48483584 63.04296875 32.77734375 C63.27371094 31.80023438 63.50445312 30.823125 63.7421875 29.81640625 C63.94457031 28.93726563 64.14695312 28.058125 64.35546875 27.15234375 C64.68546875 25.83234375 65.01546875 24.51234375 65.35546875 23.15234375 C49.51546875 22.82234375 33.67546875 22.49234375 17.35546875 22.15234375 C18.01546875 26.11234375 18.67546875 30.07234375 19.35546875 34.15234375 C19.42687708 37.15149377 19.45541324 40.15400903 19.35546875 43.15234375 C17.37546875 43.64734375 17.37546875 43.64734375 15.35546875 44.15234375 C13.02740008 40.66024074 12.7287798 38.28450407 12.1015625 34.1484375 C11.99578384 33.4693483 11.89000519 32.79025909 11.78102112 32.09059143 C11.44463222 29.92469009 11.11821692 27.75744371 10.79296875 25.58984375 C10.46273239 23.41892994 10.13036138 21.24838951 9.79420471 19.0783844 C9.49027162 17.11212698 9.19309565 15.14482865 8.89624023 13.17749023 C8.51894421 10.24359189 8.51894421 10.24359189 7.35546875 8.15234375 C4.77595001 7.46140479 4.77595001 7.46140479 1.79296875 7.02734375 C0.78105469 6.85976562 -0.23085937 6.6921875 -1.2734375 6.51953125 C-2.05589844 6.39835938 -2.83835938 6.2771875 -3.64453125 6.15234375 C-4.26953125 4.27734375 -4.26953125 4.27734375 -4.64453125 2.15234375 C-2.64453125 0.15234375 -2.64453125 0.15234375 0 0 Z " fill="#CFEDEB" transform="translate(216.64453125,195.84765625)"/>
<path d="M0 0 C4.0938763 2.52765848 7.2648298 5.45125942 9 10 C9.90324374 17.18791858 9.89030222 23.54992108 5.4140625 29.4765625 C2.23082256 32.90601989 -0.38118398 34.1496919 -5 34.375 C-9.1346024 34.42501535 -9.95077756 33.42953346 -14 31 C-14.33 36.28 -14.66 41.56 -15 47 C-18.96 47 -22.92 47 -27 47 C-27.93512434 44.19462697 -28.12182907 42.51834636 -28.11352539 39.62036133 C-28.11344986 38.73967484 -28.11337433 37.85898834 -28.11329651 36.95161438 C-28.10813522 36.00465195 -28.10297394 35.05768951 -28.09765625 34.08203125 C-28.0962413 33.10965012 -28.09482635 32.13726898 -28.09336853 31.13542175 C-28.08776817 28.02774996 -28.07521562 24.92015004 -28.0625 21.8125 C-28.05748505 19.70638125 -28.05292213 17.60026137 -28.04882812 15.49414062 C-28.03779862 10.32939936 -28.02053375 5.16471187 -28 0 C-24.04 0 -20.08 0 -16 0 C-15.67 0.66 -15.34 1.32 -15 2 C-14.195625 1.484375 -13.39125 0.96875 -12.5625 0.4375 C-7.9909294 -1.40716884 -4.69729177 -1.48421372 0 0 Z M-13.8125 11.125 C-15.57844751 13.91333817 -15.46181576 15.76728968 -15 19 C-13.45714369 21.54331238 -13.45714369 21.54331238 -11 23 C-7.60845705 22.83849795 -6.41703243 22.41703243 -4 20 C-3.52100162 15.31683466 -3.52100162 15.31683466 -5.1875 11.0625 C-8.2599147 9.26142932 -10.78032329 9.24295928 -13.8125 11.125 Z " fill="#F0FAF9" transform="translate(299,269)"/>
<path d="M0 0 C3.09244792 0.03255208 6.18489583 0.06510417 9.27734375 0.09765625 C9.60734375 5.04765625 9.93734375 9.99765625 10.27734375 15.09765625 C12.25734375 14.10765625 14.23734375 13.11765625 16.27734375 12.09765625 C21.28823964 11.57019352 24.26278402 12.00071017 28.27734375 15.09765625 C30.66846584 18.68433938 30.51115402 20.26162194 30.47265625 24.515625 C30.46621094 25.76923828 30.45976562 27.02285156 30.453125 28.31445312 C30.43636719 29.62478516 30.41960937 30.93511719 30.40234375 32.28515625 C30.39231014 33.62043612 30.38318495 34.95572314 30.375 36.29101562 C30.35139667 39.5600764 30.31846969 42.82877653 30.27734375 46.09765625 C26.31734375 46.09765625 22.35734375 46.09765625 18.27734375 46.09765625 C18.23996094 44.76089844 18.20257813 43.42414063 18.1640625 42.046875 C18.0984072 40.29294048 18.03195971 38.53903549 17.96484375 36.78515625 C17.94228516 35.90408203 17.91972656 35.02300781 17.89648438 34.11523438 C17.84331055 32.84389648 17.84331055 32.84389648 17.7890625 31.546875 C17.76287842 30.76658936 17.73669434 29.98630371 17.7097168 29.18237305 C17.18417665 26.64844459 16.23649115 25.72837848 14.27734375 24.09765625 C12.12883354 24.93926067 12.12883354 24.93926067 10.27734375 27.09765625 C9.60625312 30.3100774 9.58003035 33.51140271 9.52734375 36.78515625 C9.49769531 37.67783203 9.46804687 38.57050781 9.4375 39.49023438 C9.36682948 41.69279902 9.31412436 43.89430756 9.27734375 46.09765625 C7.48644122 46.29231957 5.6945787 46.47816838 3.90234375 46.66015625 C2.40574219 46.81677734 2.40574219 46.81677734 0.87890625 46.9765625 C-1.72265625 47.09765625 -1.72265625 47.09765625 -3.72265625 46.09765625 C-3.74792687 39.70728394 -3.76548942 33.31692442 -3.77758789 26.92651367 C-3.78262933 24.75072752 -3.78946232 22.57494478 -3.7980957 20.39916992 C-3.81016963 17.27912558 -3.8158863 14.15912587 -3.8203125 11.0390625 C-3.82547379 10.05990372 -3.83063507 9.08074493 -3.83595276 8.07191467 C-3.83602829 7.17105637 -3.83610382 6.27019806 -3.83618164 5.34204102 C-3.83840225 4.54484146 -3.84062286 3.74764191 -3.84291077 2.92628479 C-3.64483219 -0.08576123 -3.03841518 0.10898189 0 0 Z " fill="#F1FBFA" transform="translate(198.72265625,255.90234375)"/>
<path d="M0 0 C4.62 0 9.24 0 14 0 C15.32 4.95 16.64 9.9 18 15 C18.66 15 19.32 15 20 15 C20.20496094 14.00097656 20.40992188 13.00195312 20.62109375 11.97265625 C20.89050781 10.68230469 21.15992188 9.39195312 21.4375 8.0625 C21.70433594 6.77472656 21.97117187 5.48695313 22.24609375 4.16015625 C23 1 23 1 24 0 C26.01964199 -0.07244053 28.04167124 -0.08377188 30.0625 -0.0625 C31.16722656 -0.05347656 32.27195312 -0.04445313 33.41015625 -0.03515625 C34.26480469 -0.02355469 35.11945313 -0.01195312 36 0 C33.86738105 8.00302049 31.60492639 15.96382771 29.203125 23.89038086 C28.81553242 25.17902799 28.43375338 26.46943707 28.05761719 27.76147461 C23.55189296 43.21828763 23.55189296 43.21828763 16.75 47.375 C12.37732419 48.36878996 7.10825941 49.0541297 3 47 C3 43.37 3 39.74 3 36 C5.31 36 7.62 36 10 36 C11.45846091 31.3333672 10.40197127 28.47767597 8.69140625 23.984375 C8.44583481 23.32794006 8.20026337 22.67150513 7.94725037 21.99517822 C7.16403167 19.90881071 6.36383185 17.82946937 5.5625 15.75 C4.7685801 13.6549536 3.97812355 11.55862947 3.1884613 9.4619751 C2.47319462 7.56852501 1.7496055 5.67822509 1.02563477 3.78808594 C0 1 0 1 0 0 Z " fill="#EBF8F6" transform="translate(347,269)"/>
<path d="M0 0 C3.18552591 3.04170984 5.59866158 5.79598475 7 10 C7 12.97 7 15.94 7 19 C-0.26 19.33 -7.52 19.66 -15 20 C-15 20.66 -15 21.32 -15 22 C-10.2102679 22.23428313 -10.2102679 22.23428313 -6 20 C-4.0625 19.98828125 -4.0625 19.98828125 -2 20.3125 C-1.319375 20.41175781 -0.63875 20.51101563 0.0625 20.61328125 C2 21 2 21 5 22 C3.64231796 26.88765533 1.32965579 28.52591098 -3 31 C-8.96005735 32.98668578 -15.66780719 32.98871422 -21.4375 30.375 C-26.0584371 27.71417351 -28.33209424 24.00371727 -30 19 C-30.39032004 13.14519941 -29.96549032 9.2390329 -27 4 C-19.59505076 -4.04330693 -9.41493592 -5.50684931 0 0 Z M-14 7 C-14.66 8.32 -15.32 9.64 -16 11 C-13.03 11 -10.06 11 -7 11 C-7.66 9.68 -8.32 8.36 -9 7 C-10.65 7 -12.3 7 -14 7 Z " fill="#EFF9F8" transform="translate(148,271)"/>
<path d="M0 0 C8.41759192 0.57086012 8.41759192 0.57086012 12.48046875 3.08984375 C14.35546875 6.15234375 14.35546875 6.15234375 16.35546875 16.15234375 C33.84546875 16.48234375 51.33546875 16.81234375 69.35546875 17.15234375 C69.85046875 21.60734375 69.85046875 21.60734375 70.35546875 26.15234375 C68.87046875 26.64734375 68.87046875 26.64734375 67.35546875 27.15234375 C67.35546875 25.50234375 67.35546875 23.85234375 67.35546875 22.15234375 C50.85546875 22.15234375 34.35546875 22.15234375 17.35546875 22.15234375 C18.01546875 26.11234375 18.67546875 30.07234375 19.35546875 34.15234375 C19.42687708 37.15149377 19.45541324 40.15400903 19.35546875 43.15234375 C17.37546875 43.64734375 17.37546875 43.64734375 15.35546875 44.15234375 C13.02740008 40.66024074 12.7287798 38.28450407 12.1015625 34.1484375 C11.99578384 33.4693483 11.89000519 32.79025909 11.78102112 32.09059143 C11.44463222 29.92469009 11.11821692 27.75744371 10.79296875 25.58984375 C10.46273239 23.41892994 10.13036138 21.24838951 9.79420471 19.0783844 C9.49027162 17.11212698 9.19309565 15.14482865 8.89624023 13.17749023 C8.51894421 10.24359189 8.51894421 10.24359189 7.35546875 8.15234375 C4.77595001 7.46140479 4.77595001 7.46140479 1.79296875 7.02734375 C0.78105469 6.85976562 -0.23085937 6.6921875 -1.2734375 6.51953125 C-2.05589844 6.39835938 -2.83835938 6.2771875 -3.64453125 6.15234375 C-4.26953125 4.27734375 -4.26953125 4.27734375 -4.64453125 2.15234375 C-2.64453125 0.15234375 -2.64453125 0.15234375 0 0 Z " fill="#EAFDFD" transform="translate(216.64453125,195.84765625)"/>
<path d="M0 0 C0.66 0.33 1.32 0.66 2 1 C2.36697028 8.39292203 1.07835555 14.48953777 -1 21.5625 C-1.42925781 23.07553711 -1.42925781 23.07553711 -1.8671875 24.61914062 C-2.56770467 27.082626 -3.27877105 29.54251466 -4 32 C-9.92932479 33.71357486 -15.15926605 34.27355616 -21.3125 34.1953125 C-22.59398926 34.19106766 -22.59398926 34.19106766 -23.90136719 34.18673706 C-26.60106053 34.17563879 -29.30040877 34.15055427 -32 34.125 C-33.84244309 34.11495679 -35.68489143 34.1058333 -37.52734375 34.09765625 C-42.01835994 34.0757335 -46.50912168 34.04127646 -51 34 C-48.02144644 31.02144644 -44.70975177 31.64374816 -40.7109375 31.5859375 C-39.89251373 31.56657135 -39.07408997 31.5472052 -38.23086548 31.5272522 C-35.61235024 31.46738918 -32.99379119 31.42104468 -30.375 31.375 C-28.60154314 31.33682636 -26.82810495 31.29777499 -25.0546875 31.2578125 C-20.70327625 31.16168229 -16.35177821 31.07767649 -12 31 C-9.76968755 25.62548773 -7.64237204 20.36828287 -6.3125 14.6875 C-6.08175781 13.72199219 -5.85101563 12.75648438 -5.61328125 11.76171875 C-5.04006589 9.18042409 -4.50581768 6.59527017 -4 4 C-3.34 4 -2.68 4 -2 4 C-2 5.65 -2 7.3 -2 9 C-1.34 8.67 -0.68 8.34 0 8 C0 5.36 0 2.72 0 0 Z " fill="#CBECE9" transform="translate(286,214)"/>
<path d="M0 0 C2.90398503 2.11912421 3.84245093 3.50634623 4.9375 6.9375 C5.01401228 10.68660183 4.3485228 12.10348854 2 15 C-0.6875 16.8125 -0.6875 16.8125 -3 18 C-2.34 19.32 -1.68 20.64 -1 22 C-2.875 21.875 -2.875 21.875 -5 21 C-6.0625 18.25 -6.0625 18.25 -7 15 C-7.495 14.195625 -7.99 13.39125 -8.5 12.5625 C-10.30163383 9.48470888 -11.1224143 6.4428362 -12 3 C-8.25667607 -1.09983097 -5.31465636 -1.41001087 0 0 Z M-8 6 C-7.67 7.65 -7.34 9.3 -7 11 C-4.60280568 11.67958603 -4.60280568 11.67958603 -2 12 C-1.34 11.34 -0.68 10.68 0 10 C-0.32041397 7.39719432 -0.32041397 7.39719432 -1 5 C-4.48581856 3.7979936 -4.67992344 3.78661563 -8 6 Z " fill="#C3E7E5" transform="translate(267,255)"/>
<path d="M0 0 C1 2 1 2 1 6 C1.33 5.34 1.66 4.68 2 4 C2.99 4.33 3.98 4.66 5 5 C4.67 5.66 4.34 6.32 4 7 C5.32 7.66 6.64 8.32 8 9 C7.01 9.33 6.02 9.66 5 10 C5.33 10.99 5.66 11.98 6 13 C3.36 12.67 0.72 12.34 -2 12 C-2 13.65 -2 15.3 -2 17 C-0.35 17.33 1.3 17.66 3 18 C3.99 16.68 4.98 15.36 6 14 C5.773125 14.928125 5.54625 15.85625 5.3125 16.8125 C4.63680017 19.96826848 4.63680017 19.96826848 6.4375 21.875 C6.953125 22.24625 7.46875 22.6175 8 23 C4.58269199 24.05147939 1.56434703 24.36370888 -2 24 C-5.74785043 21.91786087 -6.79482295 20.7052961 -8 16.5625 C-8 12.62891627 -7.41868244 11.04574825 -5 8 C-4.34 7.67 -3.68 7.34 -3 7 C-1.94647157 4.69034152 -0.94280904 2.3570226 0 0 Z " fill="#C3E9E6" transform="translate(234,248)"/>
<path d="M0 0 C1.32 0 2.64 0 4 0 C4 0.66 4 1.32 4 2 C8.29 2 12.58 2 17 2 C17.91145833 4.27864583 18.82291667 6.55729167 19.734375 8.8359375 C21.19483944 11.33315139 22.33869601 11.98244259 25 13 C21.25 14.125 21.25 14.125 19 13 C16.45384991 12.76827173 13.92603775 12.58105471 11.375 12.4375 C10.66859375 12.39431641 9.9621875 12.35113281 9.234375 12.30664062 C7.48981463 12.20055249 5.74493303 12.09977111 4 12 C7.22844826 9.84770116 9.18974777 9.39690127 13 9 C13.99 9.33 14.98 9.66 16 10 C15.67 9.34 15.34 8.68 15 8 C13.37581255 7.91909029 11.75048255 7.86085005 10.125 7.8125 C9.22007812 7.77769531 8.31515625 7.74289062 7.3828125 7.70703125 C6.59648437 7.80371094 5.81015625 7.90039062 5 8 C4.01 9.485 4.01 9.485 3 11 C1.68 10.67 0.36 10.34 -1 10 C-0.835 8.906875 -0.67 7.81375 -0.5 6.6875 C0.06718184 3.12474127 0.06718184 3.12474127 0 0 Z " fill="#E8F9F8" transform="translate(239,258)"/>
<path d="M0 0 C8.58 0 17.16 0 26 0 C26.33 1.32 26.66 2.64 27 4 C23.72287017 6.18475322 22.76132616 6.2479325 18.96484375 6.23046875 C17.99095703 6.22853516 17.01707031 6.22660156 16.01367188 6.22460938 C14.99853516 6.21236328 13.98339844 6.20011719 12.9375 6.1875 C11.91849609 6.18685547 10.89949219 6.18621094 9.84960938 6.18554688 C2.28080986 6.14040493 2.28080986 6.14040493 0 5 C0 3.35 0 1.7 0 0 Z " fill="#9FD8D5" transform="translate(200,228)"/>
<path d="M0 0 C4.71239608 0.31958296 8.35187934 0.57026189 12.48046875 2.96484375 C15.28932227 7.73989474 15.7729042 12.70058292 16.35546875 18.15234375 C15.69546875 18.15234375 15.03546875 18.15234375 14.35546875 18.15234375 C14.35546875 16.17234375 14.35546875 14.19234375 14.35546875 12.15234375 C13.69546875 12.15234375 13.03546875 12.15234375 12.35546875 12.15234375 C12.35546875 11.49234375 12.35546875 10.83234375 12.35546875 10.15234375 C11.69546875 10.15234375 11.03546875 10.15234375 10.35546875 10.15234375 C10.52046875 10.64734375 10.68546875 11.14234375 10.85546875 11.65234375 C11.56235693 15.18678464 11.4155203 18.54925076 11.35546875 22.15234375 C11.02546875 22.15234375 10.69546875 22.15234375 10.35546875 22.15234375 C10.22269531 21.30929688 10.08992187 20.46625 9.953125 19.59765625 C9.77652344 18.50195312 9.59992188 17.40625 9.41796875 16.27734375 C9.24394531 15.18679687 9.06992188 14.09625 8.890625 12.97265625 C8.49995716 10.21412829 8.49995716 10.21412829 7.35546875 8.15234375 C4.77595001 7.46140479 4.77595001 7.46140479 1.79296875 7.02734375 C0.78105469 6.85976562 -0.23085937 6.6921875 -1.2734375 6.51953125 C-2.05589844 6.39835938 -2.83835938 6.2771875 -3.64453125 6.15234375 C-4.26953125 4.27734375 -4.26953125 4.27734375 -4.64453125 2.15234375 C-2.64453125 0.15234375 -2.64453125 0.15234375 0 0 Z " fill="#D8F2F0" transform="translate(216.64453125,195.84765625)"/>
<path d="M0 0 C0.83265381 0.00523682 1.66530762 0.01047363 2.52319336 0.01586914 C3.42231445 0.0190918 4.32143555 0.02231445 5.24780273 0.02563477 C6.66609375 0.03820312 6.66609375 0.03820312 8.11303711 0.05102539 C9.06243164 0.05553711 10.01182617 0.06004883 10.98999023 0.06469727 C13.34356776 0.07652429 15.69702188 0.09300514 18.05053711 0.11352539 C18.67553711 1.98852539 18.67553711 1.98852539 19.05053711 4.11352539 C17.05053711 6.11352539 17.05053711 6.11352539 15.0793457 6.34057617 C14.29382324 6.33010254 13.50830078 6.31962891 12.69897461 6.30883789 C11.42280273 6.29916992 11.42280273 6.29916992 10.12084961 6.28930664 C8.78666992 6.26416992 8.78666992 6.26416992 7.42553711 6.23852539 C6.07975586 6.22499023 6.07975586 6.22499023 4.70678711 6.21118164 C2.48777125 6.18757509 0.26928633 6.15464849 -1.94946289 6.11352539 C-2.33165056 4.45737882 -2.66341391 2.78895515 -2.94946289 1.11352539 C-1.94946289 0.11352539 -1.94946289 0.11352539 0 0 Z " fill="#F3FDFD" transform="translate(201.949462890625,216.886474609375)"/>
<path d="M0 0 C6.65689282 -0.02529589 13.3137733 -0.04284396 19.97070312 -0.05493164 C22.23665836 -0.05996926 24.50261033 -0.06679952 26.76855469 -0.07543945 C30.02019047 -0.08752996 33.27178339 -0.09323392 36.5234375 -0.09765625 C38.05005508 -0.10539818 38.05005508 -0.10539818 39.60751343 -0.11329651 C41.01874985 -0.11340981 41.01874985 -0.11340981 42.45849609 -0.11352539 C43.70425919 -0.11685631 43.70425919 -0.11685631 44.97518921 -0.12025452 C47 0 47 0 49 1 C49 2.98 49 4.96 49 7 C48.01 7.33 47.02 7.66 46 8 C45.505 5.525 45.505 5.525 45 3 C30.15 2.67 15.3 2.34 0 2 C0 1.34 0 0.68 0 0 Z " fill="#FDFDFE" transform="translate(238,215)"/>
<path d="M0 0 C-0.33 1.32 -0.66 2.64 -1 4 C-6.61 4 -12.22 4 -18 4 C-18.33 2.68 -18.66 1.36 -19 0 C-16.94041903 -2.05958097 -12.89782835 -1.50370603 -10.0625 -1.6875 C-9.32064453 -1.74744141 -8.57878906 -1.80738281 -7.81445312 -1.86914062 C-2.23819489 -2.23819489 -2.23819489 -2.23819489 0 0 Z " fill="#CAF1EF" transform="translate(221,240)"/>
<path d="M0 0 C0.33 0 0.66 0 1 0 C2.34495828 7.09705662 3.24091535 13.7725395 3 21 C1.68 21.33 0.36 21.66 -1 22 C-2.91562291 19.12656563 -3.29210899 18.22496459 -3.6328125 14.98828125 C-3.71660156 14.23095703 -3.80039063 13.47363281 -3.88671875 12.69335938 C-3.96535156 11.90767578 -4.04398438 11.12199219 -4.125 10.3125 C-4.21136719 9.51521484 -4.29773438 8.71792969 -4.38671875 7.89648438 C-4.59848472 5.93176674 -4.80021473 3.96597204 -5 2 C-1.41949869 6.17255271 -1.73343202 8.66864045 -2 14 C-1.34 14 -0.68 14 0 14 C0 9.38 0 4.76 0 0 Z " fill="#C5EBE8" transform="translate(233,218)"/>
<path d="M0 0 C0.66 0.33 1.32 0.66 2 1 C2.37369729 8.47394574 1.04061541 14.82140651 -1 22 C-1.33 22 -1.66 22 -2 22 C-2 20.35 -2 18.7 -2 17 C-3.65 18.32 -5.3 19.64 -7 21 C-6.54775239 15.08507728 -5.8417395 9.64800112 -4 4 C-3.34 4 -2.68 4 -2 4 C-2 5.65 -2 7.3 -2 9 C-1.34 8.67 -0.68 8.34 0 8 C0 5.36 0 2.72 0 0 Z " fill="#C7EBE8" transform="translate(286,214)"/>
<path d="M0 0 C3.96 0 7.92 0 12 0 C9.48961281 9.38092055 6.76116178 18.69062846 4 28 C3.67 28 3.34 28 3 28 C3.33 23.71 3.66 19.42 4 15 C4.66 15 5.32 15 6 15 C6 12.69 6 10.38 6 8 C6.66 8 7.32 8 8 8 C8.33 5.69 8.66 3.38 9 1 C6.03 1 3.06 1 0 1 C0 0.67 0 0.34 0 0 Z " fill="#BAE7E4" transform="translate(371,269)"/>
<path d="M0 0 C7.59 0 15.18 0 23 0 C23 0.99 23 1.98 23 3 C15.08 3 7.16 3 -1 3 C-0.67 2.01 -0.34 1.02 0 0 Z " fill="#F8FEFE" transform="translate(202,229)"/>
<path d="M0 0 C4.29648445 4.29648445 3 7.46391781 3 14 C-4.92 14.33 -12.84 14.66 -21 15 C-21 14.01 -21 13.02 -21 12 C-13.74 12 -6.48 12 1 12 C0.67 8.04 0.34 4.08 0 0 Z " fill="#A0D7D3" transform="translate(152,276)"/>
<path d="M0 0 C3.09244792 0.03255208 6.18489583 0.06510417 9.27734375 0.09765625 C9.60734375 5.04765625 9.93734375 9.99765625 10.27734375 15.09765625 C12.25734375 14.10765625 14.23734375 13.11765625 16.27734375 12.09765625 C20.71491339 11.72159103 22.535505 11.60309708 26.27734375 14.09765625 C25.70886719 14.05125 25.14039063 14.00484375 24.5546875 13.95703125 C18.45322113 13.6718208 15.36431605 14.77555189 10.27734375 18.09765625 C9.61734375 18.09765625 8.95734375 18.09765625 8.27734375 18.09765625 C8.27734375 12.48765625 8.27734375 6.87765625 8.27734375 1.09765625 C4.97734375 1.09765625 1.67734375 1.09765625 -1.72265625 1.09765625 C-1.72265625 3.07765625 -1.72265625 5.05765625 -1.72265625 7.09765625 C-2.38265625 7.09765625 -3.04265625 7.09765625 -3.72265625 7.09765625 C-3.76519981 5.09810879 -3.76346408 3.09723989 -3.72265625 1.09765625 C-2.72265625 0.09765625 -2.72265625 0.09765625 0 0 Z " fill="#95D6D1" transform="translate(198.72265625,255.90234375)"/>
<path d="M0 0 C0.33 1.32 0.66 2.64 1 4 C-1.62113708 4 -3.50935112 3.68707555 -6 3 C-6 5.64 -6 8.28 -6 11 C0.435 10.505 0.435 10.505 7 10 C7 9.01 7 8.02 7 7 C7.99 7.33 8.98 7.66 10 8 C7.08634826 11.11459324 5.22519019 12.86513999 0.80859375 13.1328125 C0.02613281 13.13023437 -0.75632812 13.12765625 -1.5625 13.125 C-2.74005859 13.12886719 -2.74005859 13.12886719 -3.94140625 13.1328125 C-6 13 -6 13 -8 12 C-8 8.37 -8 4.74 -8 1 C-6.865625 1.020625 -5.73125 1.04125 -4.5625 1.0625 C-1.18424326 1.41577477 -1.18424326 1.41577477 0 0 Z " fill="#A3DBD6" transform="translate(358,304)"/>
<path d="M0 0 C3.96 0 7.92 0 12 0 C12.33 1.32 12.66 2.64 13 4 C12.01 4.495 12.01 4.495 11 5 C11 3.68 11 2.36 11 1 C6.545 1.495 6.545 1.495 2 2 C2 12.23 2 22.46 2 33 C-0.45286296 29.32070555 -0.23228878 27.52622093 -0.1953125 23.14453125 C-0.1924826 22.48289474 -0.18965271 21.82125824 -0.18673706 21.13957214 C-0.17555918 19.03036263 -0.15045981 16.92158075 -0.125 14.8125 C-0.11496707 13.38086552 -0.10584176 11.94922436 -0.09765625 10.51757812 C-0.07562795 7.01158023 -0.04111485 3.50583187 0 0 Z " fill="#A7E1DE" transform="translate(271,269)"/>
<path d="M0 0 C2.94548102 2.14940507 3.85086454 3.48867842 4.875 7 C5.0040057 10.0961367 4.67059759 11.44496838 3 14 C2.34 13.01 1.68 12.02 1 11 C0.34 10.67 -0.32 10.34 -1 10 C-1 8.35 -1 6.7 -1 5 C-0.34 5 0.32 5 1 5 C1 4.34 1 3.68 1 3 C0.37351562 2.93941406 -0.25296875 2.87882812 -0.8984375 2.81640625 C-1.71570313 2.73261719 -2.53296875 2.64882813 -3.375 2.5625 C-4.59316406 2.44068359 -4.59316406 2.44068359 -5.8359375 2.31640625 C-8 2 -8 2 -10 1 C-6.4215878 -1.33973105 -4.05713232 -1.18333026 0 0 Z " fill="#B9E6E3" transform="translate(267,255)"/>
<path d="M0 0 C0.33 0 0.66 0 1 0 C1 10.89 1 21.78 1 33 C7.4 32.8 7.4 32.8 9 31 C9.23363881 29.15108054 9.41303635 27.29511969 9.5625 25.4375 C9.64628906 24.42558594 9.73007812 23.41367187 9.81640625 22.37109375 C9.87699219 21.58863281 9.93757813 20.80617188 10 20 C10.33 20 10.66 20 11 20 C11 24.62 11 29.24 11 34 C7.37 34 3.74 34 0 34 C0 22.78 0 11.56 0 0 Z " fill="#E8FEFF" transform="translate(312,281)"/>
<path d="M0 0 C6.93 0 13.86 0 21 0 C21 0.66 21 1.32 21 2 C15.39 2 9.78 2 4 2 C4 2.66 4 3.32 4 4 C3.01 4 2.02 4 1 4 C0.67 4.99 0.34 5.98 0 7 C-0.33 7 -0.66 7 -1 7 C-0.67 4.69 -0.34 2.38 0 0 Z " fill="#F7FEFE" transform="translate(235,248)"/>
<path d="M0 0 C0.83265381 0.00523682 1.66530762 0.01047363 2.52319336 0.01586914 C3.42231445 0.0190918 4.32143555 0.02231445 5.24780273 0.02563477 C6.66609375 0.03820312 6.66609375 0.03820312 8.11303711 0.05102539 C9.06243164 0.05553711 10.01182617 0.06004883 10.98999023 0.06469727 C13.34356776 0.07652429 15.69702188 0.09300514 18.05053711 0.11352539 C18.67553711 1.98852539 18.67553711 1.98852539 19.05053711 4.11352539 C17.05053711 6.11352539 17.05053711 6.11352539 15.0793457 6.34057617 C14.29382324 6.33010254 13.50830078 6.31962891 12.69897461 6.30883789 C11.42280273 6.29916992 11.42280273 6.29916992 10.12084961 6.28930664 C8.78666992 6.26416992 8.78666992 6.26416992 7.42553711 6.23852539 C6.07975586 6.22499023 6.07975586 6.22499023 4.70678711 6.21118164 C2.48777125 6.18757509 0.26928633 6.15464849 -1.94946289 6.11352539 C-2.33165056 4.45737882 -2.66341391 2.78895515 -2.94946289 1.11352539 C-1.94946289 0.11352539 -1.94946289 0.11352539 0 0 Z M-0.94946289 1.11352539 C-0.61946289 2.43352539 -0.28946289 3.75352539 0.05053711 5.11352539 C5.66053711 5.11352539 11.27053711 5.11352539 17.05053711 5.11352539 C17.05053711 3.79352539 17.05053711 2.47352539 17.05053711 1.11352539 C11.11053711 1.11352539 5.17053711 1.11352539 -0.94946289 1.11352539 Z " fill="#7BCDC5" transform="translate(201.949462890625,216.886474609375)"/>
<path d="M0 0 C0.33 0 0.66 0 1 0 C1.9236789 13.46518578 1.9236789 13.46518578 -2.5546875 19.54296875 C-4.4902538 21.49422883 -6.33261699 22.39031245 -9 23 C-9 22.01 -9 21.02 -9 20 C-7.68 20 -6.36 20 -5 20 C-4.67 18.68 -4.34 17.36 -4 16 C-3.34 16 -2.68 16 -2 16 C-1.34 10.72 -0.68 5.44 0 0 Z " fill="#B5E8E3" transform="translate(307,279)"/>
<path d="M0 0 C2.80542794 2.26181561 3.90987571 3.39975285 4.45410156 7.02441406 C4.4331543 8.17651367 4.41220703 9.32861328 4.390625 10.515625 C4.37773437 11.76601563 4.36484375 13.01640625 4.3515625 14.3046875 C4.31804687 15.60664063 4.28453125 16.90859375 4.25 18.25 C4.23195312 19.56742187 4.21390625 20.88484375 4.1953125 22.2421875 C4.14816271 25.49552308 4.08236044 28.74739625 4 32 C3.67 32 3.34 32 3 32 C2.67 22.76 2.34 13.52 2 4 C1.34 4 0.68 4 0 4 C0 2.68 0 1.36 0 0 Z " fill="#B5F0EC" transform="translate(225,270)"/>
<path d="M0 0 C4.29 0 8.58 0 13 0 C13 0.66 13 1.32 13 2 C10.00519083 2.8723412 7.36424089 3.10829766 4.25 3.0625 C3.45078125 3.05347656 2.6515625 3.04445312 1.828125 3.03515625 C1.22484375 3.02355469 0.6215625 3.01195312 0 3 C0 2.01 0 1.02 0 0 Z " fill="#F7FDFE" transform="translate(205,241)"/>
<path d="M0 0 C0.33 0 0.66 0 1 0 C1.85298376 3.67387495 2.10789471 7.0447393 2.0625 10.8125 C2.05347656 11.78832031 2.04445313 12.76414062 2.03515625 13.76953125 C2.02355469 14.50558594 2.01195313 15.24164063 2 16 C-0.22696514 13.77303486 -0.91729646 12.20649874 -1.1328125 9.0625 C-1.13023438 8.381875 -1.12765625 7.70125 -1.125 7 C-1.12757812 6.319375 -1.13015625 5.63875 -1.1328125 4.9375 C-1 3 -1 3 0 0 Z " fill="#A7DAD8" transform="translate(119,279)"/>
<path d="M0 0 C0.78503906 0.07863281 1.57007813 0.15726562 2.37890625 0.23828125 C4.4375 0.6875 4.4375 0.6875 6.4375 2.6875 C5.880625 2.67589844 5.32375 2.66429687 4.75 2.65234375 C-0.46028343 2.59073567 -5.4062951 2.93750656 -10.5625 3.6875 C-7.29488672 0.10868545 -4.7511281 -0.52442435 0 0 Z " fill="#ADE1DD" transform="translate(294.5625,268.3125)"/>
<path d="M0 0 C1.60875 0.13341797 1.60875 0.13341797 3.25 0.26953125 C4.85875 0.38361328 4.85875 0.38361328 6.5 0.5 C9.25 1.08203125 9.25 1.08203125 11.25 4.08203125 C6.63 3.42203125 2.01 2.76203125 -2.75 2.08203125 C-2.42 3.40203125 -2.09 4.72203125 -1.75 6.08203125 C-2.41 6.08203125 -3.07 6.08203125 -3.75 6.08203125 C-4.375 4.20703125 -4.375 4.20703125 -4.75 2.08203125 C-2.75 0.08203125 -2.75 0.08203125 0 0 Z " fill="#97DDD1" transform="translate(216.75,195.91796875)"/>
<path d="M0 0 C1.125 3.75 1.125 3.75 0 6 C0.99 6.99 1.98 7.98 3 9 C-0.38018531 10.04005702 -3.4780279 10.08004482 -7 10 C-7 9.34 -7 8.68 -7 8 C-6.401875 7.979375 -5.80375 7.95875 -5.1875 7.9375 C-2.56685398 7.09543384 -2.56685398 7.09543384 -1.25 3.4375 C-0.8375 2.303125 -0.425 1.16875 0 0 Z " fill="#A9D9D4" transform="translate(239,262)"/>
<path d="M0 0 C1.22589844 0.15275391 1.22589844 0.15275391 2.4765625 0.30859375 C3.41628906 0.43427734 3.41628906 0.43427734 4.375 0.5625 C4.705 1.8825 5.035 3.2025 5.375 4.5625 C-0.565 3.5725 -0.565 3.5725 -6.625 2.5625 C-6.625 1.9025 -6.625 1.2425 -6.625 0.5625 C-4.10446405 -0.69776798 -2.7707902 -0.35624445 0 0 Z " fill="#E8F9F9" transform="translate(263.625,256.4375)"/>
<path d="M0 0 C0.99 0.99 1.98 1.98 3 3 C1.6302836 6.99500618 -0.25722422 9.80009492 -3 13 C-3.66 12.67 -4.32 12.34 -5 12 C-3.35 8.04 -1.7 4.08 0 0 Z " fill="#A3E1DF" transform="translate(160,285)"/>
<path d="M0 0 C0.33 1.32 0.66 2.64 1 4 C1.66 4 2.32 4 3 4 C3.98248524 8.0527516 4.08159574 11.83861737 4 16 C2.41839705 13.03017788 1.29656358 10.09120779 0.3125 6.875 C0.04050781 6.00617188 -0.23148437 5.13734375 -0.51171875 4.2421875 C-1 2 -1 2 0 0 Z " fill="#B3E4E0" transform="translate(356,288)"/>
<path d="M0 0 C0.99 0 1.98 0 3 0 C3.33 0.99 3.66 1.98 4 3 C6.01508358 3.73323796 6.01508358 3.73323796 8 4 C7.67 4.66 7.34 5.32 7 6 C4.4375 6.625 4.4375 6.625 2 7 C0 2.25 0 2.25 0 0 Z " fill="#F4FEFD" transform="translate(239,258)"/>
<path d="M0 0 C3 2 3 2 4 5 C4.11740122 6.684571 4.17506545 8.37388877 4.1875 10.0625 C4.20167969 10.94035156 4.21585938 11.81820313 4.23046875 12.72265625 C4 15 4 15 2 17 C2.33 13.7 2.66 10.4 3 7 C2.34 7 1.68 7 1 7 C0.67 4.69 0.34 2.38 0 0 Z " fill="#A8DEDA" transform="translate(188,279)"/>
<path d="M0 0 C0.80566406 0.07863281 1.61132812 0.15726562 2.44140625 0.23828125 C3.42947266 0.46064453 3.42947266 0.46064453 4.4375 0.6875 C4.7675 1.3475 5.0975 2.0075 5.4375 2.6875 C0.4875 2.6875 -4.4625 2.6875 -9.5625 2.6875 C-5.78132497 0.16671665 -4.43706627 -0.47718048 0 0 Z " fill="#88DDDB" transform="translate(252.5625,267.3125)"/>
<path d="M0 0 C4.62 0 9.24 0 14 0 C14 0.33 14 0.66 14 1 C12.95199219 1.05607422 12.95199219 1.05607422 11.8828125 1.11328125 C10.51769531 1.21189453 10.51769531 1.21189453 9.125 1.3125 C7.76761719 1.39951172 7.76761719 1.39951172 6.3828125 1.48828125 C3.63778399 1.7882039 3.63778399 1.7882039 2 5 C0.68 4.67 -0.64 4.34 -2 4 C-1.34 2.68 -0.68 1.36 0 0 Z " fill="#DAF7F7" transform="translate(240,264)"/>
<path d="M0 0 C6.19887485 -0.37952295 10.4477112 0.1647887 16 3 C15.67 3.66 15.34 4.32 15 5 C14.01 5 13.02 5 12 5 C12 4.34 12 3.68 12 3 C6.06 2.01 6.06 2.01 0 1 C0 0.67 0 0.34 0 0 Z " fill="#92D6C7" transform="translate(132,268)"/>
<path d="M0 0 C0.33 0 0.66 0 1 0 C1 2.97 1 5.94 1 9 C-0.32 9.33 -1.64 9.66 -3 10 C-5 7 -5 7 -5 3 C-4.34 3 -3.68 3 -3 3 C-2.814375 3.9590625 -2.814375 3.9590625 -2.625 4.9375 C-2.315625 5.9584375 -2.315625 5.9584375 -2 7 C-1.34 7.33 -0.68 7.66 0 8 C0 5.36 0 2.72 0 0 Z " fill="#99DBCD" transform="translate(235,230)"/>
<path d="M0 0 C-5.57468542 3.61601216 -10.60567654 3.30720059 -17 3 C-17 2.67 -17 2.34 -17 2 C-13.7 2 -10.4 2 -7 2 C-7 1.34 -7 0.68 -7 0 C-3.86650268 -1.04449911 -3.01031744 -0.93423645 0 0 Z " fill="#96D6D2" transform="translate(262,300)"/>
<path d="M0 0 C0.66 0 1.32 0 2 0 C0.9789114 3.67591895 0.08564783 4.9339798 -3 7.3125 C-6 9 -6 9 -8 9 C-8 8.34 -8 7.68 -8 7 C-7.01 7 -6.02 7 -5 7 C-5 6.34 -5 5.68 -5 5 C-3.68 4.67 -2.36 4.34 -1 4 C-0.67 2.68 -0.34 1.36 0 0 Z " fill="#A6E1DE" transform="translate(151,293)"/>
<path d="M0 0 C1.32 0 2.64 0 4 0 C4 0.99 4 1.98 4 3 C4.66 3 5.32 3 6 3 C6 5.31 6 7.62 6 10 C5.01 10.33 4.02 10.66 3 11 C3.0928125 9.39125 3.0928125 9.39125 3.1875 7.75 C2.99456691 3.89133813 2.60334924 2.71182212 0 0 Z " fill="#ADE0DB" transform="translate(331,279)"/>
<path d="M0 0 C0 0.33 0 0.66 0 1 C-1.98 1 -3.96 1 -6 1 C-6 1.66 -6 2.32 -6 3 C-8.64 3.99 -11.28 4.98 -14 6 C-13.3125 3.5625 -13.3125 3.5625 -12 1 C-8.14430559 -0.43211507 -4.07414153 -0.07988513 0 0 Z " fill="#81C9C3" transform="translate(336,268)"/>
<path d="M0 0 C3 2 3 2 3.73046875 4.8203125 C3.88128906 5.91085938 4.03210938 7.00140625 4.1875 8.125 C4.34605469 9.22070312 4.50460938 10.31640625 4.66796875 11.4453125 C4.83232422 12.70988281 4.83232422 12.70988281 5 14 C4.34 14 3.68 14 3 14 C3 12.02 3 10.04 3 8 C2.34 8 1.68 8 1 8 C0.67 5.36 0.34 2.72 0 0 Z " fill="#ACE1DD" transform="translate(228,200)"/>
<path d="M0 0 C3.96 0 7.92 0 12 0 C11.34 2.64 10.68 5.28 10 8 C9.67 8 9.34 8 9 8 C9 5.69 9 3.38 9 1 C6.03 1 3.06 1 0 1 C0 0.67 0 0.34 0 0 Z " fill="#94E3DC" transform="translate(371,269)"/>
<path d="M0 0 C1.67542976 0.28604898 3.34385343 0.61781233 5 1 C4.67 2.32 4.34 3.64 4 5 C2.68 5 1.36 5 0 5 C-0.5625 3.0625 -0.5625 3.0625 -1 1 C-0.67 0.67 -0.34 0.34 0 0 Z " fill="#9BDBD8" transform="translate(261,261)"/>
<path d="M0 0 C1.65 0.33 3.3 0.66 5 1 C4.67 2.32 4.34 3.64 4 5 C2.0625 4.625 2.0625 4.625 0 4 C-0.33 3.34 -0.66 2.68 -1 2 C-0.67 1.34 -0.34 0.68 0 0 Z " fill="#A4DEDA" transform="translate(233,261)"/>
<path d="M0 0 C0.66 0.66 1.32 1.32 2 2 C1.625 4.125 1.625 4.125 1 6 C-0.98 6 -2.96 6 -5 6 C-3.68 5.67 -2.36 5.34 -1 5 C-1 4.34 -1 3.68 -1 3 C-1.99 2.67 -2.98 2.34 -4 2 C-2.68 1.34 -1.36 0.68 0 0 Z " fill="#AEEAE8" transform="translate(219,238)"/>
<path d="M0 0 C0.66 0 1.32 0 2 0 C1.67 3.3 1.34 6.6 1 10 C0.34 10 -0.32 10 -1 10 C-1.33 10.66 -1.66 11.32 -2 12 C-1.44687265 7.97007218 -0.8441938 3.97977076 0 0 Z " fill="#89D7C9" transform="translate(282,218)"/>
<path d="M0 0 C-0.61875 0.28875 -1.2375 0.5775 -1.875 0.875 C-4.13325765 1.93720042 -4.13325765 1.93720042 -6 4 C-6.39764263 5.98821313 -6.73775349 7.98944339 -7 10 C-7.33 10 -7.66 10 -8 10 C-8 7.03 -8 4.06 -8 1 C-5.29120665 -0.35439668 -2.99066732 -0.06501451 0 0 Z " fill="#C0EEEA" transform="translate(291,278)"/>
<path d="M0 0 C2.88437779 1.29299694 4.87219421 2.65941363 7 5 C6.67 5.66 6.34 6.32 6 7 C4.125 6.875 4.125 6.875 2 6 C0.75 2.9375 0.75 2.9375 0 0 Z " fill="#AEE3DF" transform="translate(339,270)"/>
<path d="M0 0 C0.33 0 0.66 0 1 0 C1 2.97 1 5.94 1 9 C-0.65 9.66 -2.3 10.32 -4 11 C-2.68 7.37 -1.36 3.74 0 0 Z " fill="#94DDC0" transform="translate(278,235)"/>
<path d="M0 0 C0.66 0 1.32 0 2 0 C2 0.66 2 1.32 2 2 C3.175625 2.185625 3.175625 2.185625 4.375 2.375 C7 3 7 3 9 5 C7.3125 5.8125 7.3125 5.8125 5 6 C2.25 3.625 2.25 3.625 0 1 C0 0.67 0 0.34 0 0 Z " fill="#B8E6E2" transform="translate(121,295)"/>
<path d="M0 0 C0.103125 0.639375 0.20625 1.27875 0.3125 1.9375 C0.539375 2.618125 0.76625 3.29875 1 4 C1.99 4.33 2.98 4.66 4 5 C5.1875 7.5625 5.1875 7.5625 6 10 C2.83884224 8.63016497 2.0072908 8.0109362 0 5 C-0.125 2.3125 -0.125 2.3125 0 0 Z " fill="#AEE1DD" transform="translate(234,290)"/>
<path d="M0 0 C3.3 0.99 6.6 1.98 10 3 C6 5 6 5 3.3125 4.3125 C1 3 1 3 0 0 Z " fill="#B3E3E0" transform="translate(172,272)"/>
<path d="M0 0 C0.66 0.33 1.32 0.66 2 1 C1.67 2.32 1.34 3.64 1 5 C-0.32 5 -1.64 5 -3 5 C-3 5.66 -3 6.32 -3 7 C-3.66 7 -4.32 7 -5 7 C-3.70700306 4.11562221 -2.34058637 2.12780579 0 0 Z " fill="#AAE0DD" transform="translate(125,271)"/>
<path d="M0 0 C2.56616632 3.84924948 2.55097676 6.4349304 3 11 C2.67 10.34 2.34 9.68 2 9 C1.34 9 0.68 9 0 9 C0 6.03 0 3.06 0 0 Z " fill="#A9DFDA" transform="translate(361,273)"/>
<path d="M0 0 C2.97 0 5.94 0 9 0 C9 0.99 9 1.98 9 3 C2.84765625 2.4140625 2.84765625 2.4140625 1 2 C0.67 1.34 0.34 0.68 0 0 Z " fill="#D8F5F4" transform="translate(330,269)"/>
<path d="M0 0 C1.32 0.33 2.64 0.66 4 1 C3.34 3.31 2.68 5.62 2 8 C0 6 0 6 -0.125 2.875 C-0.08375 1.92625 -0.0425 0.9775 0 0 Z " fill="#C2EBE8" transform="translate(243,280)"/>
<path d="M0 0 C-3.4019487 2.09350689 -6.05272412 2.17942163 -10 2 C-7.85732894 -2.28534211 -3.95706306 -0.79141261 0 0 Z " fill="#99D6D3" transform="translate(267,255)"/>
<path d="M0 0 C1.65 0 3.3 0 5 0 C4.1875 1.9375 4.1875 1.9375 3 4 C2.01 4.33 1.02 4.66 0 5 C0 3.35 0 1.7 0 0 Z " fill="#BBE9E6" transform="translate(276,246)"/>
</svg>
