<?xml version="1.0" encoding="UTF-8"?>
<svg version="1.1" xmlns="http://www.w3.org/2000/svg" width="500" height="500">
<path d="M0 0 C165 0 330 0 500 0 C500 165 500 330 500 500 C335 500 170 500 0 500 C0 335 0 170 0 0 Z " fill="#009688" transform="translate(0,0)"/>
<path d="M0 0 C4.25621367 0.06678795 7.03040596 0.22553287 10.25 3.25 C12.74739405 7.81420292 13.38747996 11.11982662 13.25 16.25 C13.9073262 16.24333817 14.5646524 16.23667633 15.24189758 16.22981262 C22.07096475 16.16354537 28.89994088 16.1182352 35.72924805 16.08520508 C38.27941598 16.07009995 40.82955786 16.04961467 43.37963867 16.02368164 C47.04091819 15.98737496 50.70185485 15.97029085 54.36328125 15.95703125 C55.5071077 15.94154739 56.65093414 15.92606354 57.829422 15.91011047 C58.89029526 15.90988388 59.95116852 15.90965729 61.04418945 15.90942383 C61.97906693 15.90276199 62.9139444 15.89610016 63.87715149 15.88923645 C66.68728072 16.31648336 67.58218591 16.9851089 69.25 19.25 C69.8228188 26.19330714 67.3436915 33.5219148 65.4375 40.125 C65.18935547 41.04796875 64.94121094 41.9709375 64.68554688 42.921875 C62.28595657 51.34791728 62.28595657 51.34791728 58.25 54.25 C54.49151826 55.50282725 50.99509081 55.37381835 47.08203125 55.34765625 C46.28721848 55.3462413 45.4924057 55.34482635 44.67350769 55.34336853 C42.13646675 55.33777378 39.59951425 55.32522228 37.0625 55.3125 C35.34179815 55.30748432 33.62109492 55.30292153 31.90039062 55.29882812 C27.6835597 55.28780607 23.46679484 55.27054506 19.25 55.25 C19.25 56.57 19.25 57.89 19.25 59.25 C19.889375 59.559375 20.52875 59.86875 21.1875 60.1875 C23.25 61.25 23.25 61.25 24.25 62.25 C26.18208837 62.42830165 28.12271372 62.51793417 30.0625 62.5625 C31.12082031 62.59988281 32.17914063 62.63726562 33.26953125 62.67578125 C36.92802138 62.1531398 37.82248495 60.92130395 40.25 58.25 C44.31812955 57.65827207 46.52000208 57.87723511 50.1875 59.75 C52.69922541 62.79451565 52.930312 64.49263774 52.671875 68.34765625 C52.00829455 71.33991254 50.75370221 72.55830932 48.25 74.25 C45.5 75 45.5 75 43.25 75.25 C44.054375 76.19875 44.85875 77.1475 45.6875 78.125 C49.57498107 82.71023408 49.6574485 86.22805058 49.5859375 92.19921875 C49.08979121 96.70491935 47.6455749 99.29123449 44.25 102.25 C39.65581136 105.59576782 35.16117034 106.92085309 29.48828125 106.63671875 C24.3277009 105.74510015 20.50285143 103.5358212 16.875 99.8125 C13.73960487 94.86822306 12.64876841 91.16211068 13.25 85.25 C14.9272672 79.67680202 17.73739284 75.95600292 22.8125 73.08203125 C27.51402151 71.47718497 32.3558391 71.88293793 37.25 72.25 C36.92 70.93 36.59 69.61 36.25 68.25 C32.29 68.25 28.33 68.25 24.25 68.25 C23.59 69.9 22.93 71.55 22.25 73.25 C19.04419594 74.85290203 15.72817686 74.73117071 12.25 74.25 C9.75 72.6875 9.75 72.6875 8.25 70.25 C7.77352392 66.43819135 7.72358509 64.18319007 9.625 60.8125 C11.25 59.25 11.25 59.25 13.25 59.25 C13.3428125 57.88875 13.3428125 57.88875 13.4375 56.5 C14.48140436 52.32438255 15.60796431 51.48841199 19.25 49.25 C22.11228056 48.66588197 24.91736713 48.64519546 27.83203125 48.640625 C28.64621017 48.62408875 29.4603891 48.60755249 30.29924011 48.59051514 C32.8870708 48.54212212 35.47431426 48.52068432 38.0625 48.5 C39.82229503 48.47183292 41.58206281 48.44190445 43.34179688 48.41015625 C47.64448288 48.33636591 51.94684457 48.2867385 56.25 48.25 C59.38710442 39.33401902 61.70108565 30.42609166 64.25 21.25 C48.08 21.58 31.91 21.91 15.25 22.25 C15.91 26.21 16.57 30.17 17.25 34.25 C17.32015115 36.91574378 17.35248833 39.58530353 17.25 42.25 C15.6 41.92 13.95 41.59 12.25 41.25 C11.39326433 36.58732247 10.53882318 31.92423261 9.68652344 27.26074219 C9.39614174 25.673712 9.10512884 24.08679718 8.81347656 22.5 C8.39483037 20.2216534 7.97844184 17.94290416 7.5625 15.6640625 C7.36563599 14.59679428 7.36563599 14.59679428 7.16479492 13.50796509 C6.25 8.47774341 6.25 8.47774341 6.25 6.25 C2.62 5.92 -1.01 5.59 -4.75 5.25 C-5.08 3.93 -5.41 2.61 -5.75 1.25 C-4.11069007 -0.38930993 -2.25256326 0.03998633 0 0 Z " fill="#EFF8F7" transform="translate(218.75,196.75)"/>
<path d="M0 0 C3.3 0 6.6 0 10 0 C10.33 1.32 10.66 2.64 11 4 C11.433125 3.34 11.86625 2.68 12.3125 2 C16.56498287 -1.16463842 20.88232706 -0.72048516 26 0 C30.3693099 1.98604995 33.08611474 4.56022904 35.30859375 8.875 C37.09081535 14.35256242 36.67360643 19.97918072 34.875 25.375 C32.2157355 29.0979703 29.13912885 31.93043557 25 34 C18.87303089 34.57801595 18.17150734 34.13720587 13 30 C12.67 35.28 12.34 40.56 12 46 C8.04 46 4.08 46 0 46 C0 30.82 0 15.64 0 0 Z " fill="#F9FCFC" transform="translate(272,269)"/>
<path d="M0 0 C3.3 0 6.6 0 10 0 C10.33 0.99 10.66 1.98 11 3 C11.55816406 2.51273437 12.11632812 2.02546875 12.69140625 1.5234375 C16.55873482 -1.02860673 20.52208794 -0.52509718 25 0 C29.60047527 1.84019011 32.08679362 5.11572483 35 9 C36.97620799 14.92862396 36.40271335 20.47420632 34.05859375 26.171875 C31.94721227 29.81809837 28.74885223 32.12557389 25 34 C19.44857581 34.41897541 18.0287765 34.0172659 13 31 C12.67 35.95 12.34 40.9 12 46 C8.04 46 4.08 46 0 46 C0 30.82 0 15.64 0 0 Z " fill="#F7FBFB" transform="translate(312,269)"/>
<path d="M0 0 C2.45703125 1.09765625 2.45703125 1.09765625 6.01953125 3.09765625 C4.36953125 6.39765625 2.71953125 9.69765625 1.01953125 13.09765625 C-1.45442708 12.31640625 -3.92838542 11.53515625 -6.40234375 10.75390625 C-9.18314404 9.9332034 -9.18314404 9.9332034 -12.98046875 10.09765625 C-12.98046875 11.08765625 -12.98046875 12.07765625 -12.98046875 13.09765625 C-11.95566406 13.46117187 -10.93085938 13.8246875 -9.875 14.19921875 C-8.51397016 14.70608504 -7.15331233 15.21395102 -5.79296875 15.72265625 C-5.11943359 15.95855469 -4.44589844 16.19445312 -3.75195312 16.4375 C1.34580879 18.37713624 3.96161387 20.54878488 7.01953125 25.09765625 C8.1419001 29.11455529 7.21619714 32.57649164 5.76953125 36.41015625 C3.31804276 40.17494215 1.25266144 41.68661285 -2.98046875 43.09765625 C-12.48023471 43.71022044 -20.5343645 44.01175327 -28.98046875 39.09765625 C-27.75519846 35.04483913 -26.28166381 31.65404861 -23.98046875 28.09765625 C-22.86671875 28.57203125 -21.75296875 29.04640625 -20.60546875 29.53515625 C-15.80363516 31.3595088 -11.07773909 31.79474469 -5.98046875 32.09765625 C-8.41676429 28.44321294 -9.60518864 28.38224991 -13.73046875 27.22265625 C-18.94451081 25.59522415 -22.18176634 23.9990263 -25.98046875 20.09765625 C-27.83665082 16.38529211 -27.42856856 12.14922537 -26.98046875 8.09765625 C-21.76767112 -2.52100558 -10.51633877 -3.18384568 0 0 Z " fill="#F8FCFB" transform="translate(184.98046875,258.90234375)"/>
<path d="M0 0 C3.96 0 7.92 0 12 0 C12.33 5.28 12.66 10.56 13 16 C14.32 15.01 15.64 14.02 17 13 C21.85723364 12.12332856 25.83334278 12.28572007 30.0625 14.875 C33.24277625 18.36304492 33.11936644 20.45558253 33.09765625 25.1015625 C33.09443359 26.31328125 33.09121094 27.525 33.08789062 28.7734375 C33.07532227 30.67996094 33.07532227 30.67996094 33.0625 32.625 C33.05798828 33.90375 33.05347656 35.1825 33.04882812 36.5 C33.03701213 39.66668645 33.01907621 42.83334896 33 46 C29.04 46 25.08 46 21 46 C20.67 39.07 20.34 32.14 20 25 C18.68 24.67 17.36 24.34 16 24 C12.83096637 25.60672068 12.83096637 25.60672068 12.56762695 28.06298828 C12.54144287 28.89040527 12.51525879 29.71782227 12.48828125 30.5703125 C12.45283203 31.46621094 12.41738281 32.36210937 12.38085938 33.28515625 C12.34702148 34.69087891 12.34702148 34.69087891 12.3125 36.125 C12.27833984 37.06988281 12.24417969 38.01476562 12.20898438 38.98828125 C12.12636961 41.32509883 12.06151232 43.66253175 12 46 C8.04 46 4.08 46 0 46 C0 30.82 0 15.64 0 0 Z " fill="#F9FCFC" transform="translate(196,256)"/>
<path d="M0 0 C3.97524509 2.28902432 6.50999398 5.20748796 8.5625 9.3125 C9.14822663 14.82669784 9.6887223 20.4972784 6.5625 25.3125 C2.98011694 29.42821537 -1.30132049 31.78066536 -6.671875 32.69140625 C-12.34750489 32.99475888 -16.7886422 31.55932132 -21.4375 28.3125 C-25.36807819 24.27848554 -27.18088292 20.57928421 -27.8125 15 C-27.26222394 9.58895211 -25.72085806 5.53675938 -21.77734375 1.6953125 C-15.20781605 -3.08007314 -7.3290004 -3.33012309 0 0 Z " fill="#F7FCFB" transform="translate(259.4375,270.6875)"/>
<path d="M0 0 C4.63793743 2.10894891 7.45834989 4.56449038 9.5703125 9.31640625 C9.5703125 12.61640625 9.5703125 15.91640625 9.5703125 19.31640625 C1.9803125 19.31640625 -5.6096875 19.31640625 -13.4296875 19.31640625 C-11.04019537 23.43723463 -11.04019537 23.43723463 -8.38671875 23.70703125 C-7.67902344 23.660625 -6.97132813 23.61421875 -6.2421875 23.56640625 C-4.355 23.44265625 -4.355 23.44265625 -2.4296875 23.31640625 C-2.4296875 22.65640625 -2.4296875 21.99640625 -2.4296875 21.31640625 C0.94736875 21.8536652 4.2669985 22.42705248 7.5703125 23.31640625 C7.24872521 26.31788761 6.58878229 27.29846417 4.3828125 29.44140625 C-0.84154896 32.92431389 -6.17099496 34.26575849 -12.4296875 33.31640625 C-17.72178745 31.53633627 -21.3719032 29.08654975 -24.4296875 24.31640625 C-26.36763909 18.50255149 -26.45024442 12.39531849 -23.7421875 6.87890625 C-16.96227053 -0.63397472 -9.96807086 -2.80452154 0 0 Z " fill="#F9FCFC" transform="translate(144.4296875,269.68359375)"/>
<path d="M0 0 C3.96 0 7.92 0 12 0 C13.25811998 3.14529996 14.28790052 5.78039215 15.0703125 8.98828125 C15.22773926 9.62548096 15.38516602 10.26268066 15.54736328 10.91918945 C15.83329346 12.10387817 15.83329346 12.10387817 16.125 13.3125 C16.74375 15.849375 17.3625 18.38625 18 21 C19.65 14.07 21.3 7.14 23 0 C26.63 0 30.26 0 34 0 C33.25033592 5.95679026 31.40371675 11.53899623 29.625 17.25 C29.01284366 19.23432035 28.40086307 21.21869493 27.7890625 23.203125 C27.48774414 24.16935791 27.18642578 25.13559082 26.87597656 26.13110352 C26.29894304 28.02093654 25.74300288 29.91735901 25.20996094 31.82006836 C24.9627832 32.69800049 24.71560547 33.57593262 24.4609375 34.48046875 C24.25001465 35.25543701 24.0390918 36.03040527 23.82177734 36.82885742 C22.42653694 40.51509417 19.98682754 43.45652967 17 46 C13.85069107 47.04976964 11.61185544 47.10131595 8.3125 47.0625 C7.31863281 47.05347656 6.32476562 47.04445313 5.30078125 47.03515625 C4.16189453 47.01775391 4.16189453 47.01775391 3 47 C3 43.7 3 40.4 3 37 C6.465 36.505 6.465 36.505 10 36 C10.71285555 28.95176624 8.14622933 23.34412504 5.5625 16.875 C4.72708517 14.74872214 3.89492928 12.62116028 3.06640625 10.4921875 C2.69459229 9.55745605 2.32277832 8.62272461 1.93969727 7.65966797 C1 5 1 5 0 0 Z " fill="#F7FBFB" transform="translate(348,269)"/>
<path d="M0 0 C3.5625 0.375 3.5625 0.375 5.5625 1.9375 C6.98220326 5.39802669 6.42551515 7.79016784 5.5625 11.375 C3.5625 13.375 3.5625 13.375 0.625 13.6875 C-2.4375 13.375 -2.4375 13.375 -4.3125 12.375 C-6.19071874 9.03594446 -5.73829454 6.16501126 -5.4375 2.375 C-3.4375 0.375 -3.4375 0.375 0 0 Z " fill="#08998B" transform="translate(289.4375,278.625)"/>
<path d="M0 0 C3.0625 0.25 3.0625 0.25 6.0625 2.25 C6.83758651 9.1150519 6.83758651 9.1150519 4.3125 12.8125 C2.0625 14.25 2.0625 14.25 0 14.1875 C-2.37460753 13.03849636 -3.48833559 12.49620483 -4.9375 10.25 C-5.31047758 7.44979912 -5.16458891 5.11132025 -4.9375 2.25 C-2.9375 0.25 -2.9375 0.25 0 0 Z " fill="#07998B" transform="translate(328.9375,278.75)"/>
<path d="M0 0 C3.0625 0.3125 3.0625 0.3125 4.9375 1.375 C6.68659203 4.38732516 6.36651551 6.90752627 6.0625 10.3125 C5.0725 11.7975 5.0725 11.7975 4.0625 13.3125 C0.5625 13.625 0.5625 13.625 -2.9375 13.3125 C-4.9375 11.3125 -4.9375 11.3125 -5.203125 9.21875 C-5.19539062 8.02765625 -5.19539062 8.02765625 -5.1875 6.8125 C-5.19265625 6.0184375 -5.1978125 5.224375 -5.203125 4.40625 C-4.75316487 0.85950548 -3.40966399 0.36273021 0 0 Z " fill="#08998B" transform="translate(249.9375,278.6875)"/>
<path d="M0 0 C1.00023193 0.00523682 2.00046387 0.01047363 3.03100586 0.01586914 C4.1105957 0.0190918 5.19018555 0.02231445 6.30249023 0.02563477 C8.00695312 0.03820312 8.00695312 0.03820312 9.74584961 0.05102539 C11.45611328 0.05779297 11.45611328 0.05779297 13.20092773 0.06469727 C16.02845312 0.07652792 18.85587601 0.09301129 21.68334961 0.11352539 C22.01334961 1.76352539 22.34334961 3.41352539 22.68334961 5.11352539 C14.43334961 5.11352539 6.18334961 5.11352539 -2.31665039 5.11352539 C-2.64665039 3.79352539 -2.97665039 2.47352539 -3.31665039 1.11352539 C-2.31665039 0.11352539 -2.31665039 0.11352539 0 0 Z " fill="#F0F8F8" transform="translate(203.316650390625,227.886474609375)"/>
<path d="M0 0 C6.27 0 12.54 0 19 0 C19.33 1.65 19.66 3.3 20 5 C13.4 5 6.8 5 0 5 C0 3.35 0 1.7 0 0 Z " fill="#EFF8F7" transform="translate(200,217)"/>
<path d="M0 0 C1.39456452 0.00667256 2.78911118 0.01863093 4.18359375 0.03515625 C4.89451172 0.03966797 5.60542969 0.04417969 6.33789062 0.04882812 C8.09899388 0.06064761 9.86005411 0.07858362 11.62109375 0.09765625 C12.18359375 2.03515625 12.18359375 2.03515625 12.62109375 4.09765625 C11.62109375 5.09765625 11.62109375 5.09765625 8.2421875 5.1953125 C6.84762298 5.18863994 5.45307632 5.17668157 4.05859375 5.16015625 C3.34767578 5.15564453 2.63675781 5.15113281 1.90429688 5.14648438 C0.14319362 5.13466489 -1.61786661 5.11672888 -3.37890625 5.09765625 C-3.94140625 3.16015625 -3.94140625 3.16015625 -4.37890625 1.09765625 C-3.37890625 0.09765625 -3.37890625 0.09765625 0 0 Z " fill="#FCFDFD" transform="translate(207.37890625,238.90234375)"/>
<path d="M0 0 C3.96 0 7.92 0 12 0 C12.33 1.32 12.66 2.64 13 4 C12.20335937 4.03738281 11.40671875 4.07476562 10.5859375 4.11328125 C4.56746879 4.48668989 0.36558109 5.12090771 -5 8 C-7.875 7.6875 -7.875 7.6875 -10 7 C-10 6.67 -10 6.34 -10 6 C-7.98177083 5.609375 -5.96354167 5.21875 -3.9453125 4.828125 C-1.47178598 4.02322581 -1.47178598 4.02322581 0 0 Z " fill="#1BA194" transform="translate(243,265)"/>
<path d="M0 0 C7.59 0 15.18 0 23 0 C23 0.33 23 0.66 23 1 C17.06 1.495 17.06 1.495 11 2 C11 2.66 11 3.32 11 4 C8.20129973 5.39935013 6.09501208 5.25265405 3 5 C1.125 3.625 1.125 3.625 0 2 C0 1.34 0 0.68 0 0 Z " fill="#26A599" transform="translate(131,289)"/>
<path d="M0 0 C4.55555556 0.55555556 4.55555556 0.55555556 6 2 C6.125 4.5 6.125 4.5 6 7 C5 8 5 8 2 8.125 C-1 8 -1 8 -2 7 C-2.1875 4.5625 -2.1875 4.5625 -2 2 C-1.34 1.34 -0.68 0.68 0 0 Z " fill="#50B7AD" transform="translate(261,259)"/>
<path d="M0 0 C3.125 0.375 3.125 0.375 6 1 C6.04254356 2.99954746 6.04080783 5.00041636 6 7 C5 8 5 8 1.9375 8.0625 C0.968125 8.041875 -0.00125 8.02125 -1 8 C-1.625 5.125 -1.625 5.125 -2 2 C-1.34 1.34 -0.68 0.68 0 0 Z " fill="#89CEC8" transform="translate(233,259)"/>
<path d="M0 0 C2.5625 0.1875 2.5625 0.1875 4.5625 2.1875 C4.5625 3.1775 4.5625 4.1675 4.5625 5.1875 C1.2625 5.1875 -2.0375 5.1875 -5.4375 5.1875 C-2.9575 0.2275 -2.9575 0.2275 0 0 Z " fill="#109C8F" transform="translate(136.4375,276.8125)"/>
<path d="M0 0 C1.32 0 2.64 0 4 0 C4 0.66 4 1.32 4 2 C3.01 2.33 2.02 2.66 1 3 C1 3.99 1 4.98 1 6 C1.99 6.66 2.98 7.32 4 8 C2.35 8 0.7 8 -1 8 C-1.625 5.125 -1.625 5.125 -2 2 C-1.34 1.34 -0.68 0.68 0 0 Z " fill="#0A9A8D" transform="translate(233,259)"/>
</svg>
